<svg width="36" height="36" viewBox="-1 -1 36 36" xmlns="http://www.w3.org/2000/svg"><path style="fill:none;stroke:currentColor;stroke-width:3;stroke-linecap:round;stroke-linejoin:round" d="M19.002 1.13V2H19v11h1V2.336A15 15 45 0 1 32 17a15 15 45 0 1-10.998 14.455v1.033A16.01 16.01 45 0 0 33.01 17 16.01 16.01 45 0 0 19.002 1.13m-6.004.382A16.01 16.01 45 0 0 .99 17a16.01 16.01 45 0 0 14.008 15.87V32H15V21h-1v10.664A15 15 45 0 1 2 17 15 15 45 0 1 12.998 2.545Z" transform="scale(1.00001 1)rotate(-45 17 17)"/></svg>
